<svg id="svg" version="1.1" xmlns="http://www.w3.org/2000/svg" xmlns:xlink="http://www.w3.org/1999/xlink" width="400" height="400" viewBox="0, 0, 400,400"><g id="svgg"><path id="path0" d="M189.844 39.698 C 154.629 42.829,125.595 54.037,100.110 74.338 C 28.412 131.453,19.467 237.654,80.594 306.055 C 81.554 307.129,82.431 307.920,82.542 307.813 C 82.768 307.595,82.561 308.725,98.633 220.117 C 117.928 113.741,119.195 106.847,119.499 106.529 C 120.305 105.689,243.350 106.451,248.828 107.331 C 286.581 113.393,307.142 136.104,309.208 174.023 C 310.032 189.162,302.236 208.472,290.384 220.648 C 288.158 222.934,286.335 224.850,286.333 224.904 C 286.330 224.959,288.319 226.981,290.752 229.397 C 312.717 251.206,320.000 284.153,309.332 313.454 C 307.807 317.645,307.830 317.665,310.840 314.812 C 386.783 242.821,372.529 116.370,282.367 62.223 C 255.603 46.150,218.602 37.142,189.844 39.698 M156.657 146.050 L 152.571 146.289 147.194 175.781 C 144.237 192.002,141.813 205.405,141.807 205.566 C 141.792 206.005,221.556 205.909,228.125 205.463 C 259.032 203.364,274.251 187.745,267.705 164.844 C 264.774 154.593,257.631 149.234,243.714 146.847 C 238.758 145.997,168.551 145.354,156.657 146.050 M167.400 245.586 C 149.578 245.653,134.866 245.838,134.707 245.998 C 134.548 246.158,132.651 255.957,130.492 267.773 C 128.332 279.590,125.686 294.004,124.610 299.805 C 119.735 326.091,119.339 328.255,117.960 336.133 C 117.283 340.000,115.250 351.139,113.443 360.886 C 111.635 370.633,110.156 378.688,110.156 378.785 C 110.156 379.094,120.306 383.798,125.537 385.914 C 140.408 391.929,158.747 396.693,174.414 398.612 C 182.489 399.601,181.722 399.710,182.505 397.461 C 186.283 386.596,196.185 358.752,196.418 358.335 C 196.627 357.961,197.827 357.745,200.369 357.623 C 227.135 356.339,259.986 330.855,270.704 303.061 C 280.317 278.134,268.820 253.820,244.519 247.686 C 235.337 245.368,234.137 245.335,167.400 245.586 " stroke="none" fill="#e3fb04" fill-rule="evenodd"></path><path id="path1" d="M187.109 0.236 C 135.670 4.560,93.238 23.854,58.389 58.766 C -33.400 150.722,-14.489 304.083,96.982 371.747 C 100.969 374.167,110.156 379.080,110.156 378.791 C 110.156 378.691,111.635 370.633,113.443 360.886 C 115.250 351.139,117.283 340.000,117.960 336.133 C 119.339 328.255,119.735 326.091,124.610 299.805 C 125.686 294.004,128.332 279.590,130.492 267.773 C 132.651 255.957,134.540 246.175,134.690 246.036 C 135.276 245.490,233.211 245.478,236.691 246.024 C 272.875 251.700,285.104 283.872,263.563 316.719 C 248.698 339.387,222.137 356.579,200.369 357.623 C 197.827 357.745,196.627 357.961,196.418 358.335 C 196.253 358.630,193.209 367.115,189.654 377.190 C 186.098 387.265,182.867 396.414,182.473 397.523 L 181.757 399.537 186.587 399.816 C 260.186 404.061,327.965 370.280,367.685 309.557 C 400.738 259.028,409.197 194.595,390.264 137.568 C 365.267 62.277,301.132 10.486,221.079 0.946 C 216.107 0.354,191.764 -0.155,187.109 0.236 M217.188 40.408 C 264.363 46.160,304.008 69.466,330.850 107.227 C 376.314 171.184,367.661 260.948,310.840 314.812 C 307.830 317.665,307.807 317.645,309.332 313.454 C 320.000 284.153,312.717 251.206,290.752 229.397 C 288.319 226.981,286.330 224.959,286.333 224.904 C 286.335 224.850,288.158 222.934,290.384 220.648 C 302.236 208.472,310.032 189.162,309.208 174.023 C 307.142 136.104,286.581 113.393,248.828 107.331 C 243.350 106.451,120.305 105.689,119.499 106.529 C 119.195 106.847,117.928 113.741,98.633 220.117 C 82.561 308.725,82.768 307.595,82.542 307.813 C 82.431 307.920,81.554 307.129,80.594 306.055 C 19.467 237.654,28.412 131.453,100.110 74.338 C 125.595 54.037,154.629 42.829,189.844 39.698 C 194.029 39.326,212.177 39.798,217.188 40.408 M243.714 146.847 C 257.631 149.234,264.774 154.593,267.705 164.844 C 274.251 187.745,259.032 203.364,228.125 205.463 C 221.556 205.909,141.792 206.005,141.807 205.566 C 141.813 205.405,144.237 192.002,147.194 175.781 L 152.571 146.289 156.657 146.050 C 168.551 145.354,238.758 145.997,243.714 146.847 " stroke="none" fill="#233b50" fill-rule="evenodd"></path></g></svg>